<svg width="577" height="577" viewBox="0 0 577 577" fill="none" xmlns="http://www.w3.org/2000/svg">
<g filter="url(#filter0_d_229_2042)">
<path d="M289.5 532.557C432.021 532.557 547.557 417.021 547.557 274.5C547.557 131.979 432.021 16.4431 289.5 16.4431C146.979 16.4431 31.4431 131.979 31.4431 274.5C31.4431 417.021 146.979 532.557 289.5 532.557Z" fill="url(#paint0_linear_229_2042)"/>
<g style="mix-blend-mode:multiply" opacity="0.5">
<g style="mix-blend-mode:multiply" opacity="0.5">
<path d="M169.557 114.96C167.259 126.506 168.429 142.07 178.246 145.542C181.02 146.133 183.87 146.046 186.613 145.288C189.356 144.53 191.932 143.117 194.173 141.14C206.943 132.012 217.178 118.693 230.077 109.838C242.975 100.983 260.75 97.5726 272.252 108.709C285.001 121.111 283.551 144.587 276.71 162.123C270.146 174.752 265.181 188.4 261.963 202.652C261.232 208.636 261.641 214.732 263.16 220.515C264.679 226.299 267.272 231.63 270.759 236.136C274.316 240.575 278.785 243.906 283.752 245.823C288.719 247.739 294.025 248.178 299.178 247.099C306.875 244.721 313.962 240.238 319.841 234.028C331.884 222.698 342.596 209.603 351.707 195.074C368.3 168.597 382.433 134.914 409.874 126.865C418.772 124.555 428.049 125.118 436.688 128.494C445.327 131.869 452.994 137.926 458.848 146.001C464.539 154.224 468.445 163.9 470.239 174.221C472.032 184.542 471.662 195.208 469.159 205.33C467.828 211.901 464.938 217.913 460.814 222.693C455.879 227.184 450.081 230.238 443.909 231.597C420.694 236.414 397.947 243.866 376 253.846C371.901 255.611 368.175 258.365 365.069 261.923C361.964 265.481 359.55 269.763 357.989 274.482C356.893 284.152 358.865 293.954 363.542 302.076C366.896 311.405 372.374 319.513 379.394 325.54C393.464 335.548 411.614 327.474 426.489 319.277L508.875 274.073C514.532 271.687 519.481 267.483 523.138 261.956C525.415 256.86 526.58 251.197 526.531 245.462C528.475 221.824 527.389 197.984 523.309 174.711C519.137 151.306 508.601 130.051 493.238 114.042C474.967 98.0905 453.076 88.6119 430.226 86.7585C407.672 83.5961 384.689 83.8813 362.275 79.3175C353.87 78.1257 345.799 74.792 338.647 69.5574C332.882 63.9892 327.624 57.756 322.956 50.9549C274.25 -9.41624 183.337 45.6594 169.557 114.96Z" fill="#CC6338"/>
<path d="M371.952 202.975C372.472 205.885 373.78 208.528 375.688 210.521C377.596 212.514 380.003 213.755 382.562 214.062C384.388 214.46 386.259 214.494 388.094 214.161C399.96 212.222 410.817 205.39 418.66 194.926C421.204 190.849 422.573 185.951 422.573 180.925C422.573 175.899 421.204 171.001 418.66 166.923C417.096 164.557 414.866 162.895 412.355 162.223C409.859 162.094 407.38 162.758 405.189 164.145C402.997 165.532 401.178 167.587 399.929 170.086C397.49 175.109 394.441 179.702 390.875 183.727C387.25 186.316 383.37 188.398 379.319 189.928C376.998 190.827 375.008 192.604 373.671 194.972C372.334 197.34 371.728 200.16 371.952 202.975Z" fill="#CC6338"/>
<path d="M195.376 189.022C191.064 198.096 189.407 208.536 190.65 218.786C191.563 223.746 193.572 228.36 194.334 233.333C195.462 240.662 194.216 249.455 198.995 254.416C200.6 255.902 202.525 256.854 204.564 257.166C206.603 257.479 208.678 257.141 210.562 256.189C214.317 254.207 217.486 251 219.681 246.962C224.568 238.732 226.948 228.86 226.447 218.897C225.102 211.418 224.902 203.724 225.856 196.165C228.918 188.53 233.594 181.907 239.453 176.905C249.634 165.422 256.873 132.78 233.836 139.204C217.103 143.942 202.067 172.54 195.376 189.022Z" fill="#CC6338"/>
<path d="M162.05 182.45C167.209 193.057 169.393 205.25 168.301 217.349C166.282 231.983 157.163 246.356 161.459 260.32C163.532 267.03 168.43 272.127 170.749 278.724C175.754 292.899 167.731 308.228 161.234 321.56C149.874 341.314 145.764 365.465 149.806 388.715C155.477 411.211 178.407 428.611 196.697 418.478C214.063 408.842 217.822 381.1 211.733 359.992C205.01 336.64 190.758 303.515 219.122 290.146C238.808 280.87 259.741 296.099 268.988 315.644C271.822 324.158 276.834 331.473 283.357 336.615C297.813 344.8 314.428 326.309 330.216 329.968C356.69 336.094 357.947 382.687 362.167 405.99C363.546 412.233 364.207 418.659 364.133 425.101C362.887 449.966 341.31 466.026 321.602 476.22C300.079 487.278 277.809 496.287 255.015 503.157C233.786 512.527 210.733 514.973 188.38 510.227C166.028 505.48 145.237 493.724 128.284 476.245C108.952 459.553 89.8455 439.487 83.0793 412.687C78.4812 389.672 80.2273 365.572 88.0733 343.759C92.9751 330.99 96.3774 317.523 98.1902 303.714C98.2537 287.784 95.5058 272.007 90.1139 257.344C80.448 225.298 78.3 192.781 101.036 166.911C121.861 143.261 150.021 154.683 162.05 182.45Z" fill="#CC6338"/>
<g style="mix-blend-mode:multiply" opacity="0.5">
<path d="M330.699 287.642C331.376 272.536 304.752 268.27 296.396 273.9C278.611 285.893 287.514 307.831 305.772 307.608C311.387 307.783 316.943 306.247 321.882 303.156C324.325 301.581 326.403 299.349 327.938 296.647C329.473 293.946 330.421 290.856 330.699 287.642Z" fill="#D16111"/>
</g>
</g>
</g>
<g style="mix-blend-mode:multiply" opacity="0.2">
<path d="M324.451 498.646C274.445 498.706 225.483 484.437 183.449 457.551C141.415 430.666 108.095 392.307 87.4917 347.084C66.8885 301.861 59.8784 251.695 67.303 202.614C74.7276 153.532 96.2714 107.621 129.347 70.3965C100.831 92.5543 77.2955 120.383 60.2503 152.096C43.2051 183.81 33.0263 218.71 30.3667 254.557C27.707 290.404 32.6248 326.406 44.8054 360.256C56.9861 394.106 76.1606 425.056 101.099 451.121C126.037 477.185 156.188 497.789 189.619 511.611C223.049 525.433 259.022 532.168 295.229 531.384C331.436 530.599 367.078 522.313 399.87 507.057C432.661 491.801 461.878 469.911 485.647 442.791C439.828 478.971 383.002 498.661 324.451 498.646Z" fill="#222226"/>
</g>
<g style="mix-blend-mode:overlay" opacity="0.39">
<path d="M288.424 14.6654C247.596 14.6705 207.359 24.5007 171.054 43.3396C132.814 89.3115 111.508 147.206 110.749 207.21C109.99 267.215 129.823 325.639 166.888 372.58C203.953 419.521 255.97 452.092 314.122 464.773C372.274 477.454 432.984 469.464 485.963 442.159C517.571 404.233 537.782 357.991 544.22 308.873C550.658 259.755 543.053 209.804 522.302 164.896C501.551 119.989 468.517 81.9934 427.084 55.3794C385.652 28.7653 337.545 14.6402 288.424 14.6654Z" fill="white"/>
</g>
</g>
<defs>
<filter id="filter0_d_229_2042" x="0.612164" y="0.13909" width="575.997" height="575.997" filterUnits="userSpaceOnUse" color-interpolation-filters="sRGB">
<feFlood flood-opacity="0" result="BackgroundImageFix"/>
<feColorMatrix in="SourceAlpha" type="matrix" values="0 0 0 0 0 0 0 0 0 0 0 0 0 0 0 0 0 0 127 0" result="hardAlpha"/>
<feOffset dy="14.5263"/>
<feGaussianBlur stdDeviation="14.5263"/>
<feColorMatrix type="matrix" values="0 0 0 0 0.976471 0 0 0 0 0.521569 0 0 0 0 0 0 0 0 0.29 0"/>
<feBlend mode="normal" in2="BackgroundImageFix" result="effect1_dropShadow_229_2042"/>
<feBlend mode="normal" in="SourceGraphic" in2="effect1_dropShadow_229_2042" result="shape"/>
</filter>
<linearGradient id="paint0_linear_229_2042" x1="38.5" y1="334.5" x2="540.5" y2="216" gradientUnits="userSpaceOnUse">
<stop stop-color="#D46C36"/>
<stop offset="1" stop-color="#7C262F"/>
</linearGradient>
</defs>
</svg>
