<svg width="1440" height="275" viewBox="0 0 1440 275" fill="none" xmlns="http://www.w3.org/2000/svg">
<path d="M269.039 113.188C265.196 38.8615 194.733 11.7424 126.833 11.7424H0V370.317H1440V11.7424H1327.26C1249.11 11.7424 1197.86 39.8659 1185.05 113.188C1169.68 101.135 1131.25 102.139 1109.47 113.188C1092.81 35.8483 971.103 44.888 960.854 113.188C948.043 108.166 926.263 110.175 919.858 124.236C882.705 113.188 854.52 120.219 826.335 135.285C784.057 124.236 740.498 135.285 725.125 163.408C686.69 128.254 641.851 124.236 594.448 135.285C553.451 116.676 539.359 108.166 494.52 113.188C476.584 29.8218 348.47 51.9188 345.908 113.188C320.285 104.148 290.819 105.153 269.039 113.188Z" fill="url(#paint0_radial_229_437)"/>
<path d="M210.002 34.6079C202.642 15.4082 195.571 8.01436 174.981 3.96063H117.779V219.48H1354.03V3.96063H1275.82C1251.34 7.37805 1239.27 11.4157 1230.29 34.6079C1194.1 27.6872 1176.59 34.6079 1159.08 52.4032C1113.55 24.7214 1051.68 23.7327 1015.49 64.2666C975.8 3.95974 871.904 -25.6984 784.351 34.6079C736.488 3.96063 685.124 9.89202 647.768 34.6079C583.562 -17.7894 485.503 -12.8455 428.301 64.2666C388.61 27.688 326.739 24.7222 284.714 52.4032C263.701 34.6079 238.019 29.6653 210.002 34.6079Z" fill="url(#paint1_radial_229_437)"/>
<path d="M864.949 81.3868C851.181 30.4668 819.054 26.3378 777.093 26.3388H729.887V220.383H1196.7V26.3388H1132.45C1079.76 25.5117 1054.76 26.3391 1041.32 81.3868C1010.17 71.7528 986.899 92.3958 983.621 126.113C967.557 114.759 938.709 111.663 917.401 126.113C917.401 91.7077 890.191 75.8814 864.949 81.3868Z" fill="url(#paint2_radial_229_437)"/>
<defs>
<radialGradient id="paint0_radial_229_437" cx="0" cy="0" r="1" gradientUnits="userSpaceOnUse" gradientTransform="translate(720 81.0468) rotate(90) scale(179.789 722.017)">
<stop stop-color="#DB684C"/>
<stop offset="1" stop-color="#FF8F70" stop-opacity="0"/>
</radialGradient>
<radialGradient id="paint1_radial_229_437" cx="0" cy="0" r="1" gradientUnits="userSpaceOnUse" gradientTransform="translate(722.48 55.3629) rotate(90) scale(164.111 565.863)">
<stop stop-color="#F0A795"/>
<stop offset="1" stop-color="#FF8C70" stop-opacity="0"/>
</radialGradient>
<radialGradient id="paint2_radial_229_437" cx="0" cy="0" r="1" gradientUnits="userSpaceOnUse" gradientTransform="translate(954.117 83.9932) rotate(84.5571) scale(96.7703 181.171)">
<stop stop-color="#FF8C70"/>
<stop offset="1" stop-color="#FF8C70" stop-opacity="0"/>
</radialGradient>
</defs>
</svg>
